<?xml version="1.0" encoding="utf-8"?>
<!-- Generator: Adobe Illustrator 27.1.0, SVG Export Plug-In . SVG Version: 6.00 Build 0)  -->
<svg version="1.1" id="Layer_1" xmlns="http://www.w3.org/2000/svg" xmlns:xlink="http://www.w3.org/1999/xlink" x="0px" y="0px"
	 viewBox="0 0 1920 1080" style="enable-background:new 0 0 1920 1080;" xml:space="preserve">
<style type="text/css">
	.st0{fill:#333233;}
	.st1{fill:#3F3F3F;}
	.st2{fill:#666463;}
	.st3{fill:#677E66;}
	.st4{fill:#9AB48E;}
	.st5{fill:#778D72;}
	.st6{fill:#89A181;}
	.st7{fill:#8FA886;}
	.st8{fill:#859D7E;}
	.st9{fill:#81987A;}
	.st10{fill:#7B9276;}
	.st11{fill:#95AD8A;}
	.st12{fill:#72896F;}
	.st13{fill:#6C826A;}
	.st14{fill:#738C6D;}
	.st15{fill:#80987A;}
	.st16{fill:#7C9873;}
	.st17{fill:#333333;}
	.st18{font-family:'AdobeArabic-Regular';}
	.st19{font-size:206.0454px;}
</style>
<g>
	<path class="st0" d="M763.14,443.84c6.02-8.65,23.67-14.55,32.86-21.2c4.02-1.62,8.26-6.55,12.74-4.03
		c12.35,7.13,24.71,14.24,37.09,21.32c6.72,3.74,1.61,35.45,3.11,44.62c-1,3.59,2.89,24.71-3.7,20.89
		c-7.36-3.96-14.57-8.18-21.82-12.34c-2.11-1.19-3.02-2.96-3.02-5.33c-0.1-9.12,0.24-18.26-0.17-27.37
		c-1.38-4.88-7.95-5.99-11.6-8.98c-5.16-2.56-9.87,3.61-14.49,5.37c-6.7,3.8,1.99,32.24-4.95,35.89
		c-5.16,2.96-10.32,5.91-15.47,8.87c-2.96,0.92-7.6,6.64-10.06,3.05c0.16-1.58,0.33-3.16,0.49-4.75c0-7.58,0.06-15.16-0.04-22.74
		c-0.02-1.43-0.62-2.85-0.95-4.28C763.14,463.18,763.14,453.51,763.14,443.84z"/>
	<path class="st1" d="M763.14,472.85c0.33,1.43,0.94,2.85,0.95,4.28c0.09,7.58,0.04,15.16,0.04,22.74
		c-0.33-0.25-0.66-0.51-0.99-0.76C763.14,490.35,763.14,481.6,763.14,472.85z"/>
	<path class="st2" d="M763.14,499.1c0.33,0.25,0.66,0.51,0.99,0.76c-0.17,1.58-0.33,3.16-0.49,4.75c-0.16-0.09-0.33-0.17-0.49-0.26
		C763.14,502.6,763.14,500.85,763.14,499.1z"/>
	<path class="st3" d="M868.17,462.34c-0.01-5.83-0.06-11.66,0-17.49c0.02-1.51,0.75-2.8,2.19-3.54
		c8.88,14.58,16.58,30.31,25.05,45.27c0.49,0.92,0.97,1.84,1.48,2.74c1.32,2.35,2.66,4.69,3.99,7.03c0.71,1.4,1.38,2.81,2.14,4.18
		c1,1.79,2.07,3.55,3.11,5.32c1.59,2.91,3.18,5.83,4.77,8.74c0.08,0.32,0.16,0.64,0.24,0.97c-14.51-6.47-28.57-15.37-42.03-23.89
		c0.34-0.51,0.71-1,1.01-1.52c1.77-3.09,3.52-6.2,5.28-9.3c0.69-2.36,9.1-12.29,5.7-13.12C876.77,465.93,872.8,463.33,868.17,462.34
		z"/>
	<path class="st4" d="M895.41,486.59c-8.47-14.97-16.16-30.7-25.05-45.27c8.43-5.04,16.9-10.05,25.49-14.79
		C896.45,446.18,897.62,467.37,895.41,486.59z"/>
	<path class="st3" d="M952.16,442.08c1.01,0.91,1.23,2.12,1.23,3.4c0.05,14.27-0.02,28.55,0.05,42.82
		c-0.17,6.13-8.22,7.1-12.24,10.32c-2.52-10.61,0.81-22.59-1.81-33.53c0.33-0.58,0.67-1.17,1-1.75c1.08-1.92,2.16-3.84,3.25-5.75
		c1.17-2.08,2.33-4.17,3.5-6.25C948.81,448.26,950.48,445.17,952.16,442.08z"/>
	<path class="st5" d="M943.64,457.59c-1.08,1.92-2.16,3.84-3.25,5.75c-2.88,0.23-9.01-16.31-10.23-9.43
		c0.59,16.78-1.32,34.23,0.74,50.69c-1.33,0.76-2.65,1.51-3.98,2.27c-2.1-19.84-0.12-40.46-0.8-60.55
		c-0.15-4.36-3.53-7.84-5.23-11.73c-1.42-2.42-2.83-4.83-4.25-7.25c-1.42-2.42-2.83-4.83-4.25-7.25c-0.08-0.33-0.17-0.66-0.25-0.98
		c0.7,0.26,1.45,0.43,2.1,0.79c1.08,0.59,2.1,1.3,3.15,1.96C925.35,434.23,934.34,446.19,943.64,457.59z"/>
	<path class="st6" d="M912.14,419.11c0.08,0.33,0.17,0.66,0.25,0.98c-2.28,30.81,1.8,65.49-1.5,94.51
		c-1.59-2.91-3.18-5.83-4.77-8.74c1.11-0.17,0.76-1.05,0.76-1.68c0.01-28.02,0.01-56.04,0.01-84.06c1.23-0.86,2.52-1.63,4.09-1.52
		C911.38,418.63,911.76,418.93,912.14,419.11z"/>
	<path class="st7" d="M906.89,420.12c0,28.02,0,56.04-0.01,84.06c0,0.63,0.35,1.51-0.76,1.68c-1.04-1.77-2.11-3.52-3.11-5.32
		c-0.76-1.37-1.43-2.79-2.14-4.18c1.48-24.06,0.03-48.76,0.52-73.02C903.22,422.26,905.06,421.19,906.89,420.12z"/>
	<path class="st8" d="M910.89,514.6c3.3-29.02-0.78-63.7,1.5-94.51c1.42,2.42,2.83,4.83,4.25,7.25c0.36,28.35-0.68,57.22,0.32,85.3
		c-1.94,0.97-3.89,1.95-5.83,2.92C911.05,515.24,910.97,514.92,910.89,514.6z"/>
	<path class="st9" d="M916.96,512.64c-1-28.08,0.04-56.95-0.32-85.3c1.42,2.42,2.83,4.83,4.25,7.25c1.15,25.03-0.91,50.37,0.81,75.3
		C920.12,510.81,918.54,511.72,916.96,512.64z"/>
	<path class="st10" d="M921.7,509.89c-1.73-24.93,0.33-50.27-0.81-75.3c1.7,3.88,5.08,7.36,5.23,11.73
		c0.68,20.09-1.3,40.71,0.8,60.55C925.19,507.88,923.45,508.88,921.7,509.89z"/>
	<path class="st11" d="M901.39,423.34c-0.49,24.27,0.96,48.96-0.52,73.02c-1.33-2.34-2.67-4.68-3.99-7.03
		c-0.51-0.9-0.98-1.83-1.48-2.74c2.21-19.22,1.04-40.41,0.44-60.07C897.7,425.46,899.54,424.4,901.39,423.34z"/>
	<path class="st12" d="M930.91,504.6c-2.06-16.46-0.15-33.91-0.74-50.69c1.22-6.88,7.34,9.67,10.23,9.43
		c-0.33,0.58-0.67,1.17-1,1.75c-1.38-1.1-2.68-3.98-4-4.26c0.16,13.66-0.32,27.37,0.19,41C934.02,502.75,932.46,503.68,930.91,504.6
		z"/>
	<path class="st10" d="M943.64,457.59c-9.3-11.4-18.29-23.36-26.25-35.74c0.7,0.34,1.42,0.63,2.09,1.02
		c3.89,2.25,7.77,4.51,11.66,6.77c1.79,5.07,6.39,9,9.16,13.68c2.32,2.53,3.84,6.4,6.84,8.01
		C945.97,453.43,944.8,455.51,943.64,457.59z"/>
	<path class="st13" d="M935.58,501.83c-0.5-13.63-0.03-27.34-0.19-41c1.32,0.28,2.62,3.17,4,4.26c2.62,10.94-0.72,22.91,1.81,33.53
		C939.32,499.69,937.45,500.76,935.58,501.83z"/>
	<path class="st14" d="M868.17,462.34c4.64,0.99,8.61,3.59,12.93,5.38c3.41,0.84-5.01,10.76-5.7,13.12
		c-0.23-0.23-0.42-0.55-0.7-0.68c-2.17-0.96-4.35-1.89-6.52-2.82C868.17,472.35,868.17,467.34,868.17,462.34z"/>
	<path class="st15" d="M947.13,451.34c-3-1.61-4.51-5.49-6.84-8.01c-2.77-4.68-7.37-8.61-9.16-13.68c5.64,3.24,11.28,6.46,16.9,9.73
		c1.42,0.83,2.75,1.8,4.12,2.7C950.48,445.17,948.81,448.26,947.13,451.34z"/>
	<path class="st16" d="M868.17,477.35c2.18,0.94,4.36,1.86,6.52,2.82c0.28,0.12,0.47,0.45,0.7,0.68c-1.76,3.1-3.51,6.2-5.28,9.3
		c-0.3,0.53-0.67,1.02-1.01,1.52c-0.32-0.83-0.89-1.66-0.91-2.5C868.1,485.24,868.16,481.29,868.17,477.35z"/>
</g>
<text transform="matrix(1.2164 0 0 1 898.5312 500.3081)" class="st17 st18 st19">iksnei</text>
</svg>
